# xmcd
#
# Track frame offsets:
#	150
#	16178
#	33550
#	47346
#	59684
#	77469
#	93336
#	108584
#	124951
#	142232
#	159257
#	174971
#	190622
#	206115
#
# Disc length: 2962 seconds
#
# Revision: 1
# Processed by: cddbd v1.4PL0 Copyright (c) Steve Scherf et al.
# Submitted via: audiograbber 1.81.02
#
DISCID=b70b900e
DTITLE=No Angels - When The Angels Swing
DYEAR=2002
DGENRE=Swing
TTITLE0=No Angels - Daylight In Your Eyes
TTITLE1=No Angels - Autoumn Breeze
TTITLE2=No Angels - Funky Dance
TTITLE3=No Angels - Like Ice In The Sunshine
TTITLE4=No Angels - There Must Be An Angel
TTITLE5=No Angels - Faith Can Move A Mountain
TTITLE6=No Angels - To Get Over You
TTITLE7=No Angels - Still In Love
TTITLE8=No Angels - Now That We Found Love
TTITLE9=No Angels - Something About Us
TTITLE10=No Angels - That's The Reason
TTITLE11=No Angels - Anchor Your Love
TTITLE12=No Angels - Rivers Of Joy
TTITLE13=No Angels - All Cried Out
EXTD=
EXTT0=
EXTT1=
EXTT2=
EXTT3=
EXTT4=
EXTT5=
EXTT6=
EXTT7=
EXTT8=
EXTT9=
EXTT10=
EXTT11=
EXTT12=
EXTT13=
PLAYORDER=
